<svg version="1.1" id="Layer_1" xmlns="http://www.w3.org/2000/svg" xmlns:xlink="http://www.w3.org/1999/xlink" x="0px" y="0px" viewBox="112.5 193 407.7 407.7" style="enable-background:new 112.5 193 407.7 407.7;" xml:space="preserve">
  <rect width="521" height="601" fill="#611F69" />
  <g>
    <g>
      <g>
        <path fill="#C7E8FF" d="M250.7,426.8c0,13.2-10.7,23.8-23.8,23.8S203,440,203,426.8s10.7-23.8,23.8-23.8h23.8V426.8z"/>
        <path fill="#C7E8FF" d="M262.6,426.8c0-13.2,10.7-23.8,23.8-23.8c13.2,0,23.8,10.7,23.8,23.8v59.6c0,13.2-10.7,23.8-23.8,23.8
          c-13.2,0-23.8-10.7-23.8-23.8V426.8z"/>
      </g>
      <g>
        <path fill="#E01E5A" d="M286.4,331.1c-13.2,0-23.8-10.7-23.8-23.8c0-13.2,10.7-23.8,23.8-23.8c13.2,0,23.8,10.7,23.8,23.8v23.8
          H286.4z"/>
        <path fill="#E01E5A" d="M286.4,343.2c13.2,0,23.8,10.7,23.8,23.8c0,13.2-10.7,23.8-23.8,23.8h-59.8c-13.2,0-23.8-10.7-23.8-23.8
          c0-13.2,10.7-23.8,23.8-23.8H286.4z"/>
      </g>
      <g>
        <path fill="#2EB67D" d="M382,367c0-13.2,10.7-23.8,23.8-23.8s23.8,10.7,23.8,23.8c0,13.2-10.7,23.8-23.8,23.8H382V367z"/>
        <path fill="#2EB67D" d="M370,367c0,13.2-10.7,23.8-23.8,23.8s-23.8-10.7-23.8-23.8v-59.8c0-13.2,10.7-23.8,23.8-23.8
          S370,294,370,307.2V367z"/>
      </g>
      <g>
        <path fill="#ECB22E" d="M346.2,462.5c13.2,0,23.8,10.7,23.8,23.8s-10.7,23.8-23.8,23.8s-23.8-10.7-23.8-23.8v-23.8H346.2z"/>
        <path fill="#ECB22E" d="M346.2,450.6c-13.2,0-23.8-10.7-23.8-23.8s10.7-23.8,23.8-23.8H406c13.2,0,23.8,10.7,23.8,23.8
          s-10.7,23.8-23.8,23.8H346.2z"/>
      </g>
    </g>
  </g>
</svg>
